<svg width="48" height="48" viewBox="0 0 48 48" fill="none" xmlns="http://www.w3.org/2000/svg">
<g clip-path="url(#clip0_3_2)">
<path fill-rule="evenodd" clip-rule="evenodd" d="M24 48C37.2548 48 48 37.2548 48 24C48 10.7452 37.2548 0 24 0C10.7452 0 0 10.7452 0 24C0 37.2548 10.7452 48 24 48ZM26.9447 11.8869L36.8779 36.4171C36.9688 36.6336 37.0066 36.8733 36.9991 37.1053C36.9991 37.6776 36.8325 38.1261 36.5145 38.4741C36.1965 38.8221 35.7574 38.9923 35.1971 38.9923C34.8337 38.9845 34.4703 38.8685 34.175 38.6443C33.8571 38.42 33.6375 38.0952 33.4634 37.724L24.0147 13.7197L20.5471 22.5435H22.2279C23.2046 22.5512 23.9995 23.3632 24.0071 24.3608V24.4072C23.9995 25.4125 23.2046 26.2168 22.2279 26.2245H19.0783L14.5357 37.7317C14.3616 38.1029 14.142 38.4277 13.824 38.652C13.5287 38.8763 13.1729 38.9923 12.8019 39C12.2417 39 11.795 38.8299 11.4845 38.4819C11.1741 38.1339 11 37.6853 11 37.1131C11 36.8733 11.0454 36.6413 11.1211 36.4171L15.2474 26.2323H13.4909C12.5142 26.2245 11.7193 25.4125 11.7117 24.4149V24.3917C11.7193 23.3864 12.5142 22.5821 13.4909 22.5744H16.7616L21.0847 11.8869C21.6449 10.6187 22.4777 10 23.5755 10H24.4538C25.5516 10 26.3844 10.6187 26.9447 11.8869Z" fill="white"/>
</g>
<defs>
<clipPath id="clip0_3_2">
<rect width="48" height="48" rx="24" fill="white"/>
</clipPath>
</defs>
</svg>
