<svg width="48" height="48" viewBox="0 0 48 48" fill="none" xmlns="http://www.w3.org/2000/svg">
<g clip-path="url(#clip0_2_166)">
<path fill-rule="evenodd" clip-rule="evenodd" d="M24 48C37.2548 48 48 37.2548 48 24C48 10.7452 37.2548 0 24 0C10.7452 0 0 10.7452 0 24C0 37.2548 10.7452 48 24 48ZM20.6429 9.64286L23.5 8L26.3571 9.64286L34.1429 14.1429L37 15.7857V31.3571L34.1429 33L26.4286 37.5L23.5714 39.1429L20.7143 37.5L12.8571 33L10 31.3571V15.7857L12.8571 14.1429L20.6429 9.64286ZM15.7143 19.0714V28.0714L23.5 32.5714L31.2857 28.0714V19.0714L23.5 14.5714L15.7143 19.0714Z" fill="white"/>
</g>
<defs>
<clipPath id="clip0_2_166">
<rect width="48" height="48" rx="24" fill="white"/>
</clipPath>
</defs>
</svg>
