<svg width="184" height="62" viewBox="0 0 184 62" fill="none" xmlns="http://www.w3.org/2000/svg">
<mask id="path-1-outside-1_3_76" maskUnits="userSpaceOnUse" x="32" y="10" width="120" height="42" fill="black">
<rect fill="white" x="32" y="10" width="120" height="42"/>
<path d="M33.7967 48.1666C33.3228 47.2189 33.1451 46.4785 33.0562 45.2049C32.7304 41.8877 33.8263 37.0305 36.1957 31.0477C37.8543 26.9013 40.0756 22.9029 43.3335 18.3714C46.7988 13.5437 49.4051 11.1743 51.4783 11.0263C52.0411 10.967 52.1891 10.9966 52.663 11.2336C53.2554 11.5298 53.6404 12.0036 53.907 12.8033C54.1439 13.5437 54.1439 16.7128 53.907 18.3122C53.5516 20.7408 52.8407 23.9395 52.0114 26.9901C51.5672 28.6487 51.3895 29.2707 50.9452 30.3369C50.7675 30.7515 50.5898 31.1958 50.5602 31.3439C50.5009 31.6697 50.2048 31.8474 49.9086 31.7289C49.5828 31.5512 49.5236 31.1662 49.7605 30.5146C50.4417 28.6487 50.8564 27.2567 51.4487 24.6799C52.7223 19.1415 52.9592 17.8087 52.9592 15.2616C52.9592 13.4253 52.9296 13.3068 52.7223 12.8625C52.3076 12.0629 51.656 11.9148 50.5602 12.4479C48.635 13.366 45.9695 16.387 42.7708 21.2147C39.6313 25.8943 38.0912 28.9449 36.3141 33.9206C34.0336 40.3772 33.5301 45.116 34.8333 47.7224C35.7218 49.4698 37.1434 50.0918 39.4536 49.7364C42.2673 49.2921 45.229 47.752 49.0497 44.7014C52.0707 42.3024 52.6038 41.7989 58.0534 36.4677C59.5343 35.0461 60.8078 33.8021 60.9263 33.7725C61.4298 33.5652 61.9037 33.9798 61.6668 34.4537C61.5483 34.6907 53.8181 42.1839 52.6038 43.2501C47.9242 47.3077 44.844 49.3217 41.7934 50.3287C40.3718 50.8026 38.5947 51.0395 37.4989 50.8915C35.7218 50.6545 34.6259 49.8548 33.7967 48.1666Z"/>
<path d="M73.0015 35.0757C72.4091 35.283 70.8098 34.8388 70.2767 34.3353C69.8916 33.9502 69.5066 33.1506 69.3289 32.2324C69.2401 31.8178 69.1216 31.4624 69.092 31.4624C69.0623 31.4624 68.5292 31.9659 67.9665 32.6174C66.3079 34.4537 63.5535 37.1193 63.2573 37.2378C63.0796 37.2674 62.8723 37.297 62.7834 37.2674C62.4873 37.2378 62.3392 37.0008 62.3392 36.6454C62.3392 36.2012 65.4194 30.6331 65.7748 30.3961C66.0117 30.248 66.3968 30.3073 66.5152 30.5146C66.6633 30.7812 66.6041 30.8996 65.8933 32.0843C65.5971 32.6767 65.1824 33.4171 64.9455 33.7725L64.5901 34.4537L66.7226 32.2916C68.7366 30.248 68.8846 30.1296 69.1808 30.1296C69.3585 30.1296 69.5955 30.1592 69.7139 30.1888C69.9213 30.2777 70.1286 30.7219 70.3359 31.6104C70.6617 32.9136 70.6913 33.0617 70.9283 33.3579C71.254 33.7429 72.261 34.0687 72.8238 33.9798C73.1792 33.9206 73.2977 33.9502 73.4457 34.1279C73.5642 34.2168 73.6531 34.3649 73.6531 34.4241C73.6531 34.6611 73.3569 34.9572 73.0015 35.0757Z"/>
<path d="M80.9545 34.0391C81.458 34.0391 81.5468 34.6314 81.073 35.0757C80.0067 36.0827 76.6303 37.7413 74.6459 38.2448C73.8759 38.4817 72.6912 38.4521 72.2173 38.2152C71.2399 37.7709 71.003 36.6454 71.625 35.3719C72.6912 33.0913 74.7052 31.6401 75.8899 32.262C76.4526 32.5878 76.5415 33.269 76.038 34.1279C75.2975 35.6088 73.9055 36.3196 73.1355 35.6977L72.8393 35.4607L72.6616 35.8161C72.3358 36.4381 72.3358 36.8231 72.5727 37.0601C72.7504 37.2674 72.8393 37.2674 73.5797 37.2378C74.2609 37.2082 74.6163 37.1193 75.5049 36.7935C77.0154 36.2308 78.7035 35.3719 79.7994 34.6314C80.3029 34.3056 80.836 34.0391 80.9545 34.0391ZM74.6459 33.4467C74.1721 33.7429 73.787 34.2168 73.787 34.5722C73.787 34.9276 74.1128 34.8388 74.5275 34.3649C74.9717 33.9206 75.2679 33.3875 75.1791 33.2986C75.1198 33.2394 74.9125 33.3283 74.6459 33.4467Z"/>
<path d="M83.0194 39.7849C83.0786 39.0741 83.434 37.9782 83.9968 36.7935C84.2337 36.3196 84.441 35.8458 84.441 35.8161C84.441 35.6088 84.1152 35.7865 82.6343 36.7935C80.7684 38.0078 79.406 38.8075 78.7545 39.0148C78.3694 39.1629 78.251 39.1925 78.014 39.0741C77.629 38.926 77.4809 38.5409 77.5698 38.1263C77.8363 37.2674 78.8729 35.7569 80.1761 34.4833C81.657 32.9729 82.8713 32.2028 83.8783 32.0843C84.5299 31.9955 85.1222 32.262 85.3888 32.8544C85.5961 33.2394 85.5961 33.269 85.8034 33.0913C85.9219 33.0025 86.5142 32.1436 87.077 31.1958C89.1206 27.8194 93.9779 20.415 95.2514 18.7268C96.0807 17.6902 96.4361 17.4829 96.7915 17.8679C97.0581 18.1641 96.9989 18.4899 96.6138 18.8157C96.2288 19.0822 95.5476 20.1188 92.6155 24.5911C89.7722 28.9449 87.2843 32.9729 87.2843 33.1506C87.2843 33.2098 87.1658 33.4171 86.9881 33.5948C86.6327 34.0983 85.4184 36.4085 84.9445 37.5043C84.5595 38.3632 84.056 39.7849 84.056 40.0514C84.056 40.2291 83.6413 40.6734 83.5229 40.6734C83.4636 40.6734 83.3156 40.6142 83.1971 40.4957C83.0194 40.3772 82.9898 40.318 83.0194 39.7849ZM84.3522 34.1872C84.5299 34.0391 84.5891 33.506 84.441 33.269C84.1745 32.884 83.1082 33.3283 81.9531 34.3649C80.8573 35.283 78.9025 37.534 79.1987 37.534C79.2283 37.534 79.7022 37.2674 80.2649 36.9416C81.4496 36.2012 84.1152 34.4241 84.3522 34.1872Z"/>
<path d="M96.8913 34.0391C97.3948 34.0391 97.4836 34.6314 97.0097 35.0757C95.9435 36.0827 92.5671 37.7413 90.5827 38.2448C89.8127 38.4817 88.628 38.4521 88.1541 38.2152C87.1767 37.7709 86.9398 36.6454 87.5617 35.3719C88.628 33.0913 90.642 31.6401 91.8267 32.262C92.3894 32.5878 92.4782 33.269 91.9748 34.1279C91.2343 35.6088 89.8423 36.3196 89.0722 35.6977L88.7761 35.4607L88.5984 35.8161C88.2726 36.4381 88.2726 36.8231 88.5095 37.0601C88.6872 37.2674 88.7761 37.2674 89.5165 37.2378C90.1977 37.2082 90.5531 37.1193 91.4416 36.7935C92.9521 36.2308 94.6403 35.3719 95.7362 34.6314C96.2397 34.3056 96.7728 34.0391 96.8913 34.0391ZM90.5827 33.4467C90.1088 33.7429 89.7238 34.2168 89.7238 34.5722C89.7238 34.9276 90.0496 34.8388 90.4643 34.3649C90.9085 33.9206 91.2047 33.3875 91.1158 33.2986C91.0566 33.2394 90.8493 33.3283 90.5827 33.4467Z"/>
<path d="M98.9265 31.5216C99.2227 31.7289 99.1931 31.9955 98.7488 32.499C98.3638 32.9729 97.0606 35.0461 97.0606 35.1942C97.0606 35.3719 97.268 35.2238 98.1565 34.6314C99.9928 33.3579 100.526 33.0321 101.562 32.4694C102.392 32.0547 102.688 31.9362 103.043 31.9362C103.399 31.9362 103.517 31.9955 103.665 32.2028C103.932 32.499 103.932 32.884 103.665 34.0983C103.576 34.6314 103.517 35.2238 103.517 35.4311C103.547 35.7865 103.547 35.7865 103.932 35.7569C104.406 35.7273 106.686 35.0165 107.841 34.513C108.76 34.1576 109.026 34.1872 109.145 34.6314C109.233 34.9276 109.056 35.1645 108.582 35.4607C107.96 35.8458 104.317 36.9712 103.695 36.9712C103.547 36.9712 103.28 36.912 103.132 36.7935C102.688 36.5862 102.362 35.9642 102.362 35.3719C102.362 35.1053 102.451 34.513 102.54 34.0391C102.629 33.5652 102.688 33.1802 102.688 33.1802C102.54 33.1802 100.674 34.276 99.5781 35.0461C97.6234 36.3789 96.7645 36.7047 96.2017 36.4085C95.7575 36.1715 95.7278 35.4311 96.1721 34.5426C96.5275 33.8318 97.8899 31.877 98.1861 31.6104C98.5119 31.3143 98.6304 31.3143 98.9265 31.5216Z"/>
<path d="M115.554 34.0983C115.879 34.4833 115.761 34.6314 114.132 35.9938C112.236 37.5932 111.644 38.0078 110.607 38.5113C109.63 39.0148 109.008 39.0741 108.445 38.7483C107.883 38.4521 107.705 38.0374 107.735 37.2378C107.735 34.8684 109.66 30.3073 113.303 24.0284C113.717 23.3472 113.984 22.7844 113.984 22.7844C113.954 22.7548 113.243 22.814 112.414 22.9029C110.015 23.2583 110.074 23.2583 109.867 23.051C109.689 22.8733 109.689 22.6956 109.897 22.4586C110.104 22.1921 110.844 22.0736 113.006 21.7774C113.895 21.659 114.665 21.5701 114.665 21.5701C114.724 21.5405 115.169 20.8889 115.702 20.1188C116.827 18.401 117.034 18.1937 117.419 18.3122C117.893 18.4899 117.804 18.8157 116.946 20.1188C116.531 20.7408 116.205 21.3035 116.205 21.3628C116.205 21.3924 116.857 21.3924 117.686 21.3628C119.345 21.2739 120.292 21.3628 120.529 21.5701C120.589 21.6293 120.648 21.807 120.648 21.9255C120.648 22.3698 120.411 22.429 118.101 22.4586C116.916 22.5179 115.82 22.5475 115.642 22.5771C115.376 22.6659 115.257 22.8437 113.717 25.5389C111.792 29.0633 110.696 31.2847 109.897 33.269C109.067 35.4311 108.653 37.2082 108.89 37.6228C109.038 37.919 109.334 37.8597 110.193 37.4451C111.052 37.0305 111.703 36.5566 113.184 35.3126C114.902 33.891 115.228 33.7133 115.554 34.0983Z"/>
<path d="M122.36 33.9206C122.567 33.9206 122.833 34.2464 122.833 34.4833C122.833 34.8684 121.797 35.6088 119.398 36.7935C116.673 38.1263 115.548 38.4521 114.689 38.0671C114.096 37.8301 113.741 37.0305 113.859 36.29C114.007 35.3423 114.541 33.9502 115.37 32.499C115.903 31.5512 116.229 31.1662 116.525 31.1662C117.028 31.1662 117.058 31.6401 116.555 32.4694C115.666 34.0391 114.955 35.8458 114.955 36.527C114.955 36.9416 115.103 37.0601 115.577 37.0601C116.288 37.0601 118.835 35.9346 121.086 34.6018C121.678 34.2464 122.271 33.9206 122.36 33.9206ZM118.332 29.0633C118.035 29.3891 117.65 29.478 117.413 29.241C117.354 29.2114 117.325 29.0633 117.325 28.9745C117.325 28.7672 118.006 27.5232 118.302 27.2271C118.628 26.842 119.131 26.9901 119.131 27.464C119.131 27.7305 118.657 28.6783 118.332 29.0633Z"/>
<path d="M126.421 34.8091L125.859 35.1349C125.148 35.5496 122.512 36.8231 121.979 37.0305C121.061 37.3562 120.468 37.0897 120.468 36.3493C120.468 35.7865 121.149 34.8091 122.275 33.6837C123.667 32.3509 125 31.492 125.947 31.2847C126.718 31.0773 127.547 31.492 127.784 32.1732C127.932 32.5286 128.021 32.5878 128.317 32.3509C128.583 32.1732 129.057 32.2028 129.235 32.3805C129.62 32.8544 129.561 33.2098 128.88 33.891C128.228 34.513 127.813 35.6977 128.021 36.2604C128.258 36.8527 129.62 36.7935 132.493 36.1123C134.27 35.6977 135.336 35.3126 136.876 34.513C138.179 33.9206 138.357 33.8021 138.565 33.9206C138.772 34.0095 138.801 34.0983 138.801 34.3649C138.801 34.6314 138.742 34.7203 138.268 35.0461C137.528 35.5496 136.758 35.9346 135.662 36.3196C133.056 37.297 129.946 37.919 128.613 37.7413C127.488 37.5636 126.895 36.912 126.895 35.7865C126.895 35.3126 126.866 35.1942 126.658 35.0165L126.421 34.8091ZM123.726 34.9868C124.259 34.7499 125.177 34.2464 125.77 33.891C126.954 33.2098 127.073 33.0025 126.806 32.5582C126.51 32.1139 125.799 32.3213 124.555 33.2098C123.904 33.7133 122.364 35.1645 122.068 35.5792L121.89 35.8458L122.275 35.668C122.512 35.5496 123.163 35.2534 123.726 34.9868Z"/>
<path d="M143.572 33.9206C144.046 34.2168 143.572 35.0165 142.209 36.2012C140.61 37.5043 139.425 38.2152 138.685 38.2152C138.3 38.2152 138.181 38.1559 137.944 37.919C137.707 37.6228 137.471 36.9712 137.471 36.4381C137.471 35.4311 138.092 33.3875 139.129 30.9292C140.817 26.9605 142.565 23.9099 144.993 20.5039C146.563 18.2529 146.8 18.0752 147.304 18.401C147.629 18.6083 147.6 18.9341 147.244 19.2599C146.208 20.2669 142.831 25.7166 141.38 28.7672C139.366 32.9432 138.329 36.0531 138.655 36.912C138.774 37.1489 138.892 37.1193 139.633 36.675C140.492 36.1419 141.173 35.6088 142.209 34.6314C143.098 33.8318 143.216 33.7725 143.572 33.9206Z"/>
<path d="M141.796 40.1107C142.329 39.5479 142.803 39.0148 142.832 38.926C142.862 38.8371 142.892 37.8005 142.862 36.675C142.862 34.276 142.832 34.4833 142.981 33.4171C143.158 31.9955 143.691 30.0111 144.224 29.0041C144.373 28.7079 144.639 28.2933 144.876 28.1156C145.202 27.8194 145.32 27.7602 145.705 27.7602C147.009 27.7602 147.394 28.9449 146.772 30.8108C146.357 32.0843 145.735 33.0913 144.817 34.0095L144.017 34.7499L144.076 38.0078L145.557 36.9416C147.779 35.3423 150.148 33.7725 150.444 33.6837C151.096 33.506 151.422 34.3945 150.8 34.7499C150.355 34.9572 146.801 37.4155 145.291 38.5409L143.869 39.6072L143.721 40.1699C143.306 41.5916 141.944 43.8129 140.967 44.5829C140.374 45.0568 139.871 45.0864 139.515 44.7014C139.16 44.3756 139.189 43.8721 139.604 43.1317C140.167 42.0358 140.818 41.1177 141.796 40.1107ZM144.224 32.7359L144.136 33.2098L144.491 32.7951C144.728 32.5878 145.083 31.9955 145.32 31.5216C145.942 30.2777 146.179 28.8856 145.765 28.8856C145.35 28.8856 144.58 30.8404 144.224 32.7359Z"/>
</mask>
<path d="M33.7967 48.1666C33.3228 47.2189 33.1451 46.4785 33.0562 45.2049C32.7304 41.8877 33.8263 37.0305 36.1957 31.0477C37.8543 26.9013 40.0756 22.9029 43.3335 18.3714C46.7988 13.5437 49.4051 11.1743 51.4783 11.0263C52.0411 10.967 52.1891 10.9966 52.663 11.2336C53.2554 11.5298 53.6404 12.0036 53.907 12.8033C54.1439 13.5437 54.1439 16.7128 53.907 18.3122C53.5516 20.7408 52.8407 23.9395 52.0114 26.9901C51.5672 28.6487 51.3895 29.2707 50.9452 30.3369C50.7675 30.7515 50.5898 31.1958 50.5602 31.3439C50.5009 31.6697 50.2048 31.8474 49.9086 31.7289C49.5828 31.5512 49.5236 31.1662 49.7605 30.5146C50.4417 28.6487 50.8564 27.2567 51.4487 24.6799C52.7223 19.1415 52.9592 17.8087 52.9592 15.2616C52.9592 13.4253 52.9296 13.3068 52.7223 12.8625C52.3076 12.0629 51.656 11.9148 50.5602 12.4479C48.635 13.366 45.9695 16.387 42.7708 21.2147C39.6313 25.8943 38.0912 28.9449 36.3141 33.9206C34.0336 40.3772 33.5301 45.116 34.8333 47.7224C35.7218 49.4698 37.1434 50.0918 39.4536 49.7364C42.2673 49.2921 45.229 47.752 49.0497 44.7014C52.0707 42.3024 52.6038 41.7989 58.0534 36.4677C59.5343 35.0461 60.8078 33.8021 60.9263 33.7725C61.4298 33.5652 61.9037 33.9798 61.6668 34.4537C61.5483 34.6907 53.8181 42.1839 52.6038 43.2501C47.9242 47.3077 44.844 49.3217 41.7934 50.3287C40.3718 50.8026 38.5947 51.0395 37.4989 50.8915C35.7218 50.6545 34.6259 49.8548 33.7967 48.1666Z" fill="white"/>
<path d="M73.0015 35.0757C72.4091 35.283 70.8098 34.8388 70.2767 34.3353C69.8916 33.9502 69.5066 33.1506 69.3289 32.2324C69.2401 31.8178 69.1216 31.4624 69.092 31.4624C69.0623 31.4624 68.5292 31.9659 67.9665 32.6174C66.3079 34.4537 63.5535 37.1193 63.2573 37.2378C63.0796 37.2674 62.8723 37.297 62.7834 37.2674C62.4873 37.2378 62.3392 37.0008 62.3392 36.6454C62.3392 36.2012 65.4194 30.6331 65.7748 30.3961C66.0117 30.248 66.3968 30.3073 66.5152 30.5146C66.6633 30.7812 66.6041 30.8996 65.8933 32.0843C65.5971 32.6767 65.1824 33.4171 64.9455 33.7725L64.5901 34.4537L66.7226 32.2916C68.7366 30.248 68.8846 30.1296 69.1808 30.1296C69.3585 30.1296 69.5955 30.1592 69.7139 30.1888C69.9213 30.2777 70.1286 30.7219 70.3359 31.6104C70.6617 32.9136 70.6913 33.0617 70.9283 33.3579C71.254 33.7429 72.261 34.0687 72.8238 33.9798C73.1792 33.9206 73.2977 33.9502 73.4457 34.1279C73.5642 34.2168 73.6531 34.3649 73.6531 34.4241C73.6531 34.6611 73.3569 34.9572 73.0015 35.0757Z" fill="white"/>
<path d="M80.9545 34.0391C81.458 34.0391 81.5468 34.6314 81.073 35.0757C80.0067 36.0827 76.6303 37.7413 74.6459 38.2448C73.8759 38.4817 72.6912 38.4521 72.2173 38.2152C71.2399 37.7709 71.003 36.6454 71.625 35.3719C72.6912 33.0913 74.7052 31.6401 75.8899 32.262C76.4526 32.5878 76.5415 33.269 76.038 34.1279C75.2975 35.6088 73.9055 36.3196 73.1355 35.6977L72.8393 35.4607L72.6616 35.8161C72.3358 36.4381 72.3358 36.8231 72.5727 37.0601C72.7504 37.2674 72.8393 37.2674 73.5797 37.2378C74.2609 37.2082 74.6163 37.1193 75.5049 36.7935C77.0154 36.2308 78.7035 35.3719 79.7994 34.6314C80.3029 34.3056 80.836 34.0391 80.9545 34.0391ZM74.6459 33.4467C74.1721 33.7429 73.787 34.2168 73.787 34.5722C73.787 34.9276 74.1128 34.8388 74.5275 34.3649C74.9717 33.9206 75.2679 33.3875 75.1791 33.2986C75.1198 33.2394 74.9125 33.3283 74.6459 33.4467Z" fill="white"/>
<path d="M83.0194 39.7849C83.0786 39.0741 83.434 37.9782 83.9968 36.7935C84.2337 36.3196 84.441 35.8458 84.441 35.8161C84.441 35.6088 84.1152 35.7865 82.6343 36.7935C80.7684 38.0078 79.406 38.8075 78.7545 39.0148C78.3694 39.1629 78.251 39.1925 78.014 39.0741C77.629 38.926 77.4809 38.5409 77.5698 38.1263C77.8363 37.2674 78.8729 35.7569 80.1761 34.4833C81.657 32.9729 82.8713 32.2028 83.8783 32.0843C84.5299 31.9955 85.1222 32.262 85.3888 32.8544C85.5961 33.2394 85.5961 33.269 85.8034 33.0913C85.9219 33.0025 86.5142 32.1436 87.077 31.1958C89.1206 27.8194 93.9779 20.415 95.2514 18.7268C96.0807 17.6902 96.4361 17.4829 96.7915 17.8679C97.0581 18.1641 96.9989 18.4899 96.6138 18.8157C96.2288 19.0822 95.5476 20.1188 92.6155 24.5911C89.7722 28.9449 87.2843 32.9729 87.2843 33.1506C87.2843 33.2098 87.1658 33.4171 86.9881 33.5948C86.6327 34.0983 85.4184 36.4085 84.9445 37.5043C84.5595 38.3632 84.056 39.7849 84.056 40.0514C84.056 40.2291 83.6413 40.6734 83.5229 40.6734C83.4636 40.6734 83.3156 40.6142 83.1971 40.4957C83.0194 40.3772 82.9898 40.318 83.0194 39.7849ZM84.3522 34.1872C84.5299 34.0391 84.5891 33.506 84.441 33.269C84.1745 32.884 83.1082 33.3283 81.9531 34.3649C80.8573 35.283 78.9025 37.534 79.1987 37.534C79.2283 37.534 79.7022 37.2674 80.2649 36.9416C81.4496 36.2012 84.1152 34.4241 84.3522 34.1872Z" fill="white"/>
<path d="M96.8913 34.0391C97.3948 34.0391 97.4836 34.6314 97.0097 35.0757C95.9435 36.0827 92.5671 37.7413 90.5827 38.2448C89.8127 38.4817 88.628 38.4521 88.1541 38.2152C87.1767 37.7709 86.9398 36.6454 87.5617 35.3719C88.628 33.0913 90.642 31.6401 91.8267 32.262C92.3894 32.5878 92.4782 33.269 91.9748 34.1279C91.2343 35.6088 89.8423 36.3196 89.0722 35.6977L88.7761 35.4607L88.5984 35.8161C88.2726 36.4381 88.2726 36.8231 88.5095 37.0601C88.6872 37.2674 88.7761 37.2674 89.5165 37.2378C90.1977 37.2082 90.5531 37.1193 91.4416 36.7935C92.9521 36.2308 94.6403 35.3719 95.7362 34.6314C96.2397 34.3056 96.7728 34.0391 96.8913 34.0391ZM90.5827 33.4467C90.1088 33.7429 89.7238 34.2168 89.7238 34.5722C89.7238 34.9276 90.0496 34.8388 90.4643 34.3649C90.9085 33.9206 91.2047 33.3875 91.1158 33.2986C91.0566 33.2394 90.8493 33.3283 90.5827 33.4467Z" fill="white"/>
<path d="M98.9265 31.5216C99.2227 31.7289 99.1931 31.9955 98.7488 32.499C98.3638 32.9729 97.0606 35.0461 97.0606 35.1942C97.0606 35.3719 97.268 35.2238 98.1565 34.6314C99.9928 33.3579 100.526 33.0321 101.562 32.4694C102.392 32.0547 102.688 31.9362 103.043 31.9362C103.399 31.9362 103.517 31.9955 103.665 32.2028C103.932 32.499 103.932 32.884 103.665 34.0983C103.576 34.6314 103.517 35.2238 103.517 35.4311C103.547 35.7865 103.547 35.7865 103.932 35.7569C104.406 35.7273 106.686 35.0165 107.841 34.513C108.76 34.1576 109.026 34.1872 109.145 34.6314C109.233 34.9276 109.056 35.1645 108.582 35.4607C107.96 35.8458 104.317 36.9712 103.695 36.9712C103.547 36.9712 103.28 36.912 103.132 36.7935C102.688 36.5862 102.362 35.9642 102.362 35.3719C102.362 35.1053 102.451 34.513 102.54 34.0391C102.629 33.5652 102.688 33.1802 102.688 33.1802C102.54 33.1802 100.674 34.276 99.5781 35.0461C97.6234 36.3789 96.7645 36.7047 96.2017 36.4085C95.7575 36.1715 95.7278 35.4311 96.1721 34.5426C96.5275 33.8318 97.8899 31.877 98.1861 31.6104C98.5119 31.3143 98.6304 31.3143 98.9265 31.5216Z" fill="white"/>
<path d="M115.554 34.0983C115.879 34.4833 115.761 34.6314 114.132 35.9938C112.236 37.5932 111.644 38.0078 110.607 38.5113C109.63 39.0148 109.008 39.0741 108.445 38.7483C107.883 38.4521 107.705 38.0374 107.735 37.2378C107.735 34.8684 109.66 30.3073 113.303 24.0284C113.717 23.3472 113.984 22.7844 113.984 22.7844C113.954 22.7548 113.243 22.814 112.414 22.9029C110.015 23.2583 110.074 23.2583 109.867 23.051C109.689 22.8733 109.689 22.6956 109.897 22.4586C110.104 22.1921 110.844 22.0736 113.006 21.7774C113.895 21.659 114.665 21.5701 114.665 21.5701C114.724 21.5405 115.169 20.8889 115.702 20.1188C116.827 18.401 117.034 18.1937 117.419 18.3122C117.893 18.4899 117.804 18.8157 116.946 20.1188C116.531 20.7408 116.205 21.3035 116.205 21.3628C116.205 21.3924 116.857 21.3924 117.686 21.3628C119.345 21.2739 120.292 21.3628 120.529 21.5701C120.589 21.6293 120.648 21.807 120.648 21.9255C120.648 22.3698 120.411 22.429 118.101 22.4586C116.916 22.5179 115.82 22.5475 115.642 22.5771C115.376 22.6659 115.257 22.8437 113.717 25.5389C111.792 29.0633 110.696 31.2847 109.897 33.269C109.067 35.4311 108.653 37.2082 108.89 37.6228C109.038 37.919 109.334 37.8597 110.193 37.4451C111.052 37.0305 111.703 36.5566 113.184 35.3126C114.902 33.891 115.228 33.7133 115.554 34.0983Z" fill="white"/>
<path d="M122.36 33.9206C122.567 33.9206 122.833 34.2464 122.833 34.4833C122.833 34.8684 121.797 35.6088 119.398 36.7935C116.673 38.1263 115.548 38.4521 114.689 38.0671C114.096 37.8301 113.741 37.0305 113.859 36.29C114.007 35.3423 114.541 33.9502 115.37 32.499C115.903 31.5512 116.229 31.1662 116.525 31.1662C117.028 31.1662 117.058 31.6401 116.555 32.4694C115.666 34.0391 114.955 35.8458 114.955 36.527C114.955 36.9416 115.103 37.0601 115.577 37.0601C116.288 37.0601 118.835 35.9346 121.086 34.6018C121.678 34.2464 122.271 33.9206 122.36 33.9206ZM118.332 29.0633C118.035 29.3891 117.65 29.478 117.413 29.241C117.354 29.2114 117.325 29.0633 117.325 28.9745C117.325 28.7672 118.006 27.5232 118.302 27.2271C118.628 26.842 119.131 26.9901 119.131 27.464C119.131 27.7305 118.657 28.6783 118.332 29.0633Z" fill="white"/>
<path d="M126.421 34.8091L125.859 35.1349C125.148 35.5496 122.512 36.8231 121.979 37.0305C121.061 37.3562 120.468 37.0897 120.468 36.3493C120.468 35.7865 121.149 34.8091 122.275 33.6837C123.667 32.3509 125 31.492 125.947 31.2847C126.718 31.0773 127.547 31.492 127.784 32.1732C127.932 32.5286 128.021 32.5878 128.317 32.3509C128.583 32.1732 129.057 32.2028 129.235 32.3805C129.62 32.8544 129.561 33.2098 128.88 33.891C128.228 34.513 127.813 35.6977 128.021 36.2604C128.258 36.8527 129.62 36.7935 132.493 36.1123C134.27 35.6977 135.336 35.3126 136.876 34.513C138.179 33.9206 138.357 33.8021 138.565 33.9206C138.772 34.0095 138.801 34.0983 138.801 34.3649C138.801 34.6314 138.742 34.7203 138.268 35.0461C137.528 35.5496 136.758 35.9346 135.662 36.3196C133.056 37.297 129.946 37.919 128.613 37.7413C127.488 37.5636 126.895 36.912 126.895 35.7865C126.895 35.3126 126.866 35.1942 126.658 35.0165L126.421 34.8091ZM123.726 34.9868C124.259 34.7499 125.177 34.2464 125.77 33.891C126.954 33.2098 127.073 33.0025 126.806 32.5582C126.51 32.1139 125.799 32.3213 124.555 33.2098C123.904 33.7133 122.364 35.1645 122.068 35.5792L121.89 35.8458L122.275 35.668C122.512 35.5496 123.163 35.2534 123.726 34.9868Z" fill="white"/>
<path d="M143.572 33.9206C144.046 34.2168 143.572 35.0165 142.209 36.2012C140.61 37.5043 139.425 38.2152 138.685 38.2152C138.3 38.2152 138.181 38.1559 137.944 37.919C137.707 37.6228 137.471 36.9712 137.471 36.4381C137.471 35.4311 138.092 33.3875 139.129 30.9292C140.817 26.9605 142.565 23.9099 144.993 20.5039C146.563 18.2529 146.8 18.0752 147.304 18.401C147.629 18.6083 147.6 18.9341 147.244 19.2599C146.208 20.2669 142.831 25.7166 141.38 28.7672C139.366 32.9432 138.329 36.0531 138.655 36.912C138.774 37.1489 138.892 37.1193 139.633 36.675C140.492 36.1419 141.173 35.6088 142.209 34.6314C143.098 33.8318 143.216 33.7725 143.572 33.9206Z" fill="white"/>
<path d="M141.796 40.1107C142.329 39.5479 142.803 39.0148 142.832 38.926C142.862 38.8371 142.892 37.8005 142.862 36.675C142.862 34.276 142.832 34.4833 142.981 33.4171C143.158 31.9955 143.691 30.0111 144.224 29.0041C144.373 28.7079 144.639 28.2933 144.876 28.1156C145.202 27.8194 145.32 27.7602 145.705 27.7602C147.009 27.7602 147.394 28.9449 146.772 30.8108C146.357 32.0843 145.735 33.0913 144.817 34.0095L144.017 34.7499L144.076 38.0078L145.557 36.9416C147.779 35.3423 150.148 33.7725 150.444 33.6837C151.096 33.506 151.422 34.3945 150.8 34.7499C150.355 34.9572 146.801 37.4155 145.291 38.5409L143.869 39.6072L143.721 40.1699C143.306 41.5916 141.944 43.8129 140.967 44.5829C140.374 45.0568 139.871 45.0864 139.515 44.7014C139.16 44.3756 139.189 43.8721 139.604 43.1317C140.167 42.0358 140.818 41.1177 141.796 40.1107ZM144.224 32.7359L144.136 33.2098L144.491 32.7951C144.728 32.5878 145.083 31.9955 145.32 31.5216C145.942 30.2777 146.179 28.8856 145.765 28.8856C145.35 28.8856 144.58 30.8404 144.224 32.7359Z" fill="white"/>
<path d="M33.7967 48.1666C33.3228 47.2189 33.1451 46.4785 33.0562 45.2049C32.7304 41.8877 33.8263 37.0305 36.1957 31.0477C37.8543 26.9013 40.0756 22.9029 43.3335 18.3714C46.7988 13.5437 49.4051 11.1743 51.4783 11.0263C52.0411 10.967 52.1891 10.9966 52.663 11.2336C53.2554 11.5298 53.6404 12.0036 53.907 12.8033C54.1439 13.5437 54.1439 16.7128 53.907 18.3122C53.5516 20.7408 52.8407 23.9395 52.0114 26.9901C51.5672 28.6487 51.3895 29.2707 50.9452 30.3369C50.7675 30.7515 50.5898 31.1958 50.5602 31.3439C50.5009 31.6697 50.2048 31.8474 49.9086 31.7289C49.5828 31.5512 49.5236 31.1662 49.7605 30.5146C50.4417 28.6487 50.8564 27.2567 51.4487 24.6799C52.7223 19.1415 52.9592 17.8087 52.9592 15.2616C52.9592 13.4253 52.9296 13.3068 52.7223 12.8625C52.3076 12.0629 51.656 11.9148 50.5602 12.4479C48.635 13.366 45.9695 16.387 42.7708 21.2147C39.6313 25.8943 38.0912 28.9449 36.3141 33.9206C34.0336 40.3772 33.5301 45.116 34.8333 47.7224C35.7218 49.4698 37.1434 50.0918 39.4536 49.7364C42.2673 49.2921 45.229 47.752 49.0497 44.7014C52.0707 42.3024 52.6038 41.7989 58.0534 36.4677C59.5343 35.0461 60.8078 33.8021 60.9263 33.7725C61.4298 33.5652 61.9037 33.9798 61.6668 34.4537C61.5483 34.6907 53.8181 42.1839 52.6038 43.2501C47.9242 47.3077 44.844 49.3217 41.7934 50.3287C40.3718 50.8026 38.5947 51.0395 37.4989 50.8915C35.7218 50.6545 34.6259 49.8548 33.7967 48.1666Z" stroke="white" stroke-width="0.5" mask="url(#path-1-outside-1_3_76)"/>
<path d="M73.0015 35.0757C72.4091 35.283 70.8098 34.8388 70.2767 34.3353C69.8916 33.9502 69.5066 33.1506 69.3289 32.2324C69.2401 31.8178 69.1216 31.4624 69.092 31.4624C69.0623 31.4624 68.5292 31.9659 67.9665 32.6174C66.3079 34.4537 63.5535 37.1193 63.2573 37.2378C63.0796 37.2674 62.8723 37.297 62.7834 37.2674C62.4873 37.2378 62.3392 37.0008 62.3392 36.6454C62.3392 36.2012 65.4194 30.6331 65.7748 30.3961C66.0117 30.248 66.3968 30.3073 66.5152 30.5146C66.6633 30.7812 66.6041 30.8996 65.8933 32.0843C65.5971 32.6767 65.1824 33.4171 64.9455 33.7725L64.5901 34.4537L66.7226 32.2916C68.7366 30.248 68.8846 30.1296 69.1808 30.1296C69.3585 30.1296 69.5955 30.1592 69.7139 30.1888C69.9213 30.2777 70.1286 30.7219 70.3359 31.6104C70.6617 32.9136 70.6913 33.0617 70.9283 33.3579C71.254 33.7429 72.261 34.0687 72.8238 33.9798C73.1792 33.9206 73.2977 33.9502 73.4457 34.1279C73.5642 34.2168 73.6531 34.3649 73.6531 34.4241C73.6531 34.6611 73.3569 34.9572 73.0015 35.0757Z" stroke="white" stroke-width="0.5" mask="url(#path-1-outside-1_3_76)"/>
<path d="M80.9545 34.0391C81.458 34.0391 81.5468 34.6314 81.073 35.0757C80.0067 36.0827 76.6303 37.7413 74.6459 38.2448C73.8759 38.4817 72.6912 38.4521 72.2173 38.2152C71.2399 37.7709 71.003 36.6454 71.625 35.3719C72.6912 33.0913 74.7052 31.6401 75.8899 32.262C76.4526 32.5878 76.5415 33.269 76.038 34.1279C75.2975 35.6088 73.9055 36.3196 73.1355 35.6977L72.8393 35.4607L72.6616 35.8161C72.3358 36.4381 72.3358 36.8231 72.5727 37.0601C72.7504 37.2674 72.8393 37.2674 73.5797 37.2378C74.2609 37.2082 74.6163 37.1193 75.5049 36.7935C77.0154 36.2308 78.7035 35.3719 79.7994 34.6314C80.3029 34.3056 80.836 34.0391 80.9545 34.0391ZM74.6459 33.4467C74.1721 33.7429 73.787 34.2168 73.787 34.5722C73.787 34.9276 74.1128 34.8388 74.5275 34.3649C74.9717 33.9206 75.2679 33.3875 75.1791 33.2986C75.1198 33.2394 74.9125 33.3283 74.6459 33.4467Z" stroke="white" stroke-width="0.5" mask="url(#path-1-outside-1_3_76)"/>
<path d="M83.0194 39.7849C83.0786 39.0741 83.434 37.9782 83.9968 36.7935C84.2337 36.3196 84.441 35.8458 84.441 35.8161C84.441 35.6088 84.1152 35.7865 82.6343 36.7935C80.7684 38.0078 79.406 38.8075 78.7545 39.0148C78.3694 39.1629 78.251 39.1925 78.014 39.0741C77.629 38.926 77.4809 38.5409 77.5698 38.1263C77.8363 37.2674 78.8729 35.7569 80.1761 34.4833C81.657 32.9729 82.8713 32.2028 83.8783 32.0843C84.5299 31.9955 85.1222 32.262 85.3888 32.8544C85.5961 33.2394 85.5961 33.269 85.8034 33.0913C85.9219 33.0025 86.5142 32.1436 87.077 31.1958C89.1206 27.8194 93.9779 20.415 95.2514 18.7268C96.0807 17.6902 96.4361 17.4829 96.7915 17.8679C97.0581 18.1641 96.9989 18.4899 96.6138 18.8157C96.2288 19.0822 95.5476 20.1188 92.6155 24.5911C89.7722 28.9449 87.2843 32.9729 87.2843 33.1506C87.2843 33.2098 87.1658 33.4171 86.9881 33.5948C86.6327 34.0983 85.4184 36.4085 84.9445 37.5043C84.5595 38.3632 84.056 39.7849 84.056 40.0514C84.056 40.2291 83.6413 40.6734 83.5229 40.6734C83.4636 40.6734 83.3156 40.6142 83.1971 40.4957C83.0194 40.3772 82.9898 40.318 83.0194 39.7849ZM84.3522 34.1872C84.5299 34.0391 84.5891 33.506 84.441 33.269C84.1745 32.884 83.1082 33.3283 81.9531 34.3649C80.8573 35.283 78.9025 37.534 79.1987 37.534C79.2283 37.534 79.7022 37.2674 80.2649 36.9416C81.4496 36.2012 84.1152 34.4241 84.3522 34.1872Z" stroke="white" stroke-width="0.5" mask="url(#path-1-outside-1_3_76)"/>
<path d="M96.8913 34.0391C97.3948 34.0391 97.4836 34.6314 97.0097 35.0757C95.9435 36.0827 92.5671 37.7413 90.5827 38.2448C89.8127 38.4817 88.628 38.4521 88.1541 38.2152C87.1767 37.7709 86.9398 36.6454 87.5617 35.3719C88.628 33.0913 90.642 31.6401 91.8267 32.262C92.3894 32.5878 92.4782 33.269 91.9748 34.1279C91.2343 35.6088 89.8423 36.3196 89.0722 35.6977L88.7761 35.4607L88.5984 35.8161C88.2726 36.4381 88.2726 36.8231 88.5095 37.0601C88.6872 37.2674 88.7761 37.2674 89.5165 37.2378C90.1977 37.2082 90.5531 37.1193 91.4416 36.7935C92.9521 36.2308 94.6403 35.3719 95.7362 34.6314C96.2397 34.3056 96.7728 34.0391 96.8913 34.0391ZM90.5827 33.4467C90.1088 33.7429 89.7238 34.2168 89.7238 34.5722C89.7238 34.9276 90.0496 34.8388 90.4643 34.3649C90.9085 33.9206 91.2047 33.3875 91.1158 33.2986C91.0566 33.2394 90.8493 33.3283 90.5827 33.4467Z" stroke="white" stroke-width="0.5" mask="url(#path-1-outside-1_3_76)"/>
<path d="M98.9265 31.5216C99.2227 31.7289 99.1931 31.9955 98.7488 32.499C98.3638 32.9729 97.0606 35.0461 97.0606 35.1942C97.0606 35.3719 97.268 35.2238 98.1565 34.6314C99.9928 33.3579 100.526 33.0321 101.562 32.4694C102.392 32.0547 102.688 31.9362 103.043 31.9362C103.399 31.9362 103.517 31.9955 103.665 32.2028C103.932 32.499 103.932 32.884 103.665 34.0983C103.576 34.6314 103.517 35.2238 103.517 35.4311C103.547 35.7865 103.547 35.7865 103.932 35.7569C104.406 35.7273 106.686 35.0165 107.841 34.513C108.76 34.1576 109.026 34.1872 109.145 34.6314C109.233 34.9276 109.056 35.1645 108.582 35.4607C107.96 35.8458 104.317 36.9712 103.695 36.9712C103.547 36.9712 103.28 36.912 103.132 36.7935C102.688 36.5862 102.362 35.9642 102.362 35.3719C102.362 35.1053 102.451 34.513 102.54 34.0391C102.629 33.5652 102.688 33.1802 102.688 33.1802C102.54 33.1802 100.674 34.276 99.5781 35.0461C97.6234 36.3789 96.7645 36.7047 96.2017 36.4085C95.7575 36.1715 95.7278 35.4311 96.1721 34.5426C96.5275 33.8318 97.8899 31.877 98.1861 31.6104C98.5119 31.3143 98.6304 31.3143 98.9265 31.5216Z" stroke="white" stroke-width="0.5" mask="url(#path-1-outside-1_3_76)"/>
<path d="M115.554 34.0983C115.879 34.4833 115.761 34.6314 114.132 35.9938C112.236 37.5932 111.644 38.0078 110.607 38.5113C109.63 39.0148 109.008 39.0741 108.445 38.7483C107.883 38.4521 107.705 38.0374 107.735 37.2378C107.735 34.8684 109.66 30.3073 113.303 24.0284C113.717 23.3472 113.984 22.7844 113.984 22.7844C113.954 22.7548 113.243 22.814 112.414 22.9029C110.015 23.2583 110.074 23.2583 109.867 23.051C109.689 22.8733 109.689 22.6956 109.897 22.4586C110.104 22.1921 110.844 22.0736 113.006 21.7774C113.895 21.659 114.665 21.5701 114.665 21.5701C114.724 21.5405 115.169 20.8889 115.702 20.1188C116.827 18.401 117.034 18.1937 117.419 18.3122C117.893 18.4899 117.804 18.8157 116.946 20.1188C116.531 20.7408 116.205 21.3035 116.205 21.3628C116.205 21.3924 116.857 21.3924 117.686 21.3628C119.345 21.2739 120.292 21.3628 120.529 21.5701C120.589 21.6293 120.648 21.807 120.648 21.9255C120.648 22.3698 120.411 22.429 118.101 22.4586C116.916 22.5179 115.82 22.5475 115.642 22.5771C115.376 22.6659 115.257 22.8437 113.717 25.5389C111.792 29.0633 110.696 31.2847 109.897 33.269C109.067 35.4311 108.653 37.2082 108.89 37.6228C109.038 37.919 109.334 37.8597 110.193 37.4451C111.052 37.0305 111.703 36.5566 113.184 35.3126C114.902 33.891 115.228 33.7133 115.554 34.0983Z" stroke="white" stroke-width="0.5" mask="url(#path-1-outside-1_3_76)"/>
<path d="M122.36 33.9206C122.567 33.9206 122.833 34.2464 122.833 34.4833C122.833 34.8684 121.797 35.6088 119.398 36.7935C116.673 38.1263 115.548 38.4521 114.689 38.0671C114.096 37.8301 113.741 37.0305 113.859 36.29C114.007 35.3423 114.541 33.9502 115.37 32.499C115.903 31.5512 116.229 31.1662 116.525 31.1662C117.028 31.1662 117.058 31.6401 116.555 32.4694C115.666 34.0391 114.955 35.8458 114.955 36.527C114.955 36.9416 115.103 37.0601 115.577 37.0601C116.288 37.0601 118.835 35.9346 121.086 34.6018C121.678 34.2464 122.271 33.9206 122.36 33.9206ZM118.332 29.0633C118.035 29.3891 117.65 29.478 117.413 29.241C117.354 29.2114 117.325 29.0633 117.325 28.9745C117.325 28.7672 118.006 27.5232 118.302 27.2271C118.628 26.842 119.131 26.9901 119.131 27.464C119.131 27.7305 118.657 28.6783 118.332 29.0633Z" stroke="white" stroke-width="0.5" mask="url(#path-1-outside-1_3_76)"/>
<path d="M126.421 34.8091L125.859 35.1349C125.148 35.5496 122.512 36.8231 121.979 37.0305C121.061 37.3562 120.468 37.0897 120.468 36.3493C120.468 35.7865 121.149 34.8091 122.275 33.6837C123.667 32.3509 125 31.492 125.947 31.2847C126.718 31.0773 127.547 31.492 127.784 32.1732C127.932 32.5286 128.021 32.5878 128.317 32.3509C128.583 32.1732 129.057 32.2028 129.235 32.3805C129.62 32.8544 129.561 33.2098 128.88 33.891C128.228 34.513 127.813 35.6977 128.021 36.2604C128.258 36.8527 129.62 36.7935 132.493 36.1123C134.27 35.6977 135.336 35.3126 136.876 34.513C138.179 33.9206 138.357 33.8021 138.565 33.9206C138.772 34.0095 138.801 34.0983 138.801 34.3649C138.801 34.6314 138.742 34.7203 138.268 35.0461C137.528 35.5496 136.758 35.9346 135.662 36.3196C133.056 37.297 129.946 37.919 128.613 37.7413C127.488 37.5636 126.895 36.912 126.895 35.7865C126.895 35.3126 126.866 35.1942 126.658 35.0165L126.421 34.8091ZM123.726 34.9868C124.259 34.7499 125.177 34.2464 125.77 33.891C126.954 33.2098 127.073 33.0025 126.806 32.5582C126.51 32.1139 125.799 32.3213 124.555 33.2098C123.904 33.7133 122.364 35.1645 122.068 35.5792L121.89 35.8458L122.275 35.668C122.512 35.5496 123.163 35.2534 123.726 34.9868Z" stroke="white" stroke-width="0.5" mask="url(#path-1-outside-1_3_76)"/>
<path d="M143.572 33.9206C144.046 34.2168 143.572 35.0165 142.209 36.2012C140.61 37.5043 139.425 38.2152 138.685 38.2152C138.3 38.2152 138.181 38.1559 137.944 37.919C137.707 37.6228 137.471 36.9712 137.471 36.4381C137.471 35.4311 138.092 33.3875 139.129 30.9292C140.817 26.9605 142.565 23.9099 144.993 20.5039C146.563 18.2529 146.8 18.0752 147.304 18.401C147.629 18.6083 147.6 18.9341 147.244 19.2599C146.208 20.2669 142.831 25.7166 141.38 28.7672C139.366 32.9432 138.329 36.0531 138.655 36.912C138.774 37.1489 138.892 37.1193 139.633 36.675C140.492 36.1419 141.173 35.6088 142.209 34.6314C143.098 33.8318 143.216 33.7725 143.572 33.9206Z" stroke="white" stroke-width="0.5" mask="url(#path-1-outside-1_3_76)"/>
<path d="M141.796 40.1107C142.329 39.5479 142.803 39.0148 142.832 38.926C142.862 38.8371 142.892 37.8005 142.862 36.675C142.862 34.276 142.832 34.4833 142.981 33.4171C143.158 31.9955 143.691 30.0111 144.224 29.0041C144.373 28.7079 144.639 28.2933 144.876 28.1156C145.202 27.8194 145.32 27.7602 145.705 27.7602C147.009 27.7602 147.394 28.9449 146.772 30.8108C146.357 32.0843 145.735 33.0913 144.817 34.0095L144.017 34.7499L144.076 38.0078L145.557 36.9416C147.779 35.3423 150.148 33.7725 150.444 33.6837C151.096 33.506 151.422 34.3945 150.8 34.7499C150.355 34.9572 146.801 37.4155 145.291 38.5409L143.869 39.6072L143.721 40.1699C143.306 41.5916 141.944 43.8129 140.967 44.5829C140.374 45.0568 139.871 45.0864 139.515 44.7014C139.16 44.3756 139.189 43.8721 139.604 43.1317C140.167 42.0358 140.818 41.1177 141.796 40.1107ZM144.224 32.7359L144.136 33.2098L144.491 32.7951C144.728 32.5878 145.083 31.9955 145.32 31.5216C145.942 30.2777 146.179 28.8856 145.765 28.8856C145.35 28.8856 144.58 30.8404 144.224 32.7359Z" stroke="white" stroke-width="0.5" mask="url(#path-1-outside-1_3_76)"/>
</svg>
