<svg width="24" height="24" viewBox="0 0 24 24" fill="none" xmlns="http://www.w3.org/2000/svg">
<path fill-rule="evenodd" clip-rule="evenodd" d="M11.9968 1.19922C9.29042 1.20063 6.67276 2.16301 4.61191 3.91428C2.55107 5.66555 1.18142 8.09152 0.747866 10.7584C0.314315 13.4252 0.845131 16.1591 2.24541 18.4711C3.64569 20.7831 5.82412 22.5225 8.39116 23.3783C8.95749 23.4839 9.17081 23.1314 9.17081 22.8318C9.17081 22.5322 9.15948 21.6634 9.15571 20.7136C5.98425 21.4014 5.31409 19.3699 5.31409 19.3699C4.79684 18.0507 4.04928 17.704 4.04928 17.704C3.01478 16.9992 4.12669 17.0124 4.12669 17.0124C5.27257 17.0934 5.87477 18.1864 5.87477 18.1864C6.89039 19.9259 8.54218 19.4227 9.19158 19.1287C9.29352 18.3918 9.5899 17.8906 9.91649 17.606C7.38309 17.3195 4.72133 16.3433 4.72133 11.9825C4.70563 10.8516 5.12602 9.75788 5.89553 8.9277C5.77849 8.64125 5.38771 7.48415 6.0069 5.91244C6.0069 5.91244 6.96401 5.60715 9.1425 7.07897C11.0111 6.56885 12.9826 6.56885 14.8511 7.07897C17.0277 5.60715 17.9829 5.91244 17.9829 5.91244C18.604 7.48038 18.2133 8.63748 18.0962 8.9277C18.8682 9.75801 19.2894 10.8536 19.2723 11.9863C19.2723 16.3565 16.6049 17.3195 14.0677 17.6003C14.4755 17.9546 14.8398 18.6463 14.8398 19.7091C14.8398 21.2318 14.8266 22.4568 14.8266 22.8318C14.8266 23.1352 15.0323 23.4895 15.61 23.3783C18.1774 22.5224 20.356 20.7827 21.7563 18.4703C23.1565 16.1579 23.687 13.4236 23.253 10.7565C22.819 8.08941 21.4486 5.66342 19.3871 3.91245C17.3256 2.16148 14.7073 1.19973 12.0006 1.19922H11.9968Z" fill="white"/>
</svg>
