<svg width="48" height="48" viewBox="0 0 48 48" fill="none" xmlns="http://www.w3.org/2000/svg">
<path fill-rule="evenodd" clip-rule="evenodd" d="M23.9936 2.39844C18.5808 2.40126 13.3455 4.32602 9.22383 7.82857C5.10214 11.3311 2.36283 16.183 1.49573 21.5168C0.62863 26.8505 1.69026 32.3182 4.49082 36.9422C7.29138 41.5663 11.6482 45.0451 16.7823 46.7566C17.915 46.9677 18.3416 46.2629 18.3416 45.6636C18.3416 45.0643 18.319 43.3268 18.3114 41.4272C11.9685 42.8029 10.6282 38.7398 10.6282 38.7398C9.59368 36.1015 8.09856 35.408 8.09856 35.408C6.02956 33.9983 8.25337 34.0247 8.25337 34.0247C10.5451 34.1868 11.7495 36.3729 11.7495 36.3729C13.7808 39.8517 17.0844 38.8454 18.3832 38.2574C18.587 36.7837 19.1798 35.7811 19.833 35.212C14.7662 34.6391 9.44266 32.6867 9.44266 23.9651C9.41125 21.7032 10.252 19.5158 11.7911 17.8554C11.557 17.2825 10.7754 14.9683 12.0138 11.8249C12.0138 11.8249 13.928 11.2143 18.285 14.1579C22.0221 13.1377 25.9651 13.1377 29.7023 14.1579C34.0555 11.2143 35.9659 11.8249 35.9659 11.8249C37.208 14.9608 36.4265 17.275 36.1924 17.8554C37.7363 19.516 38.5789 21.7072 38.5446 23.9726C38.5446 32.7131 33.2097 34.6391 28.1354 35.2007C28.9509 35.9093 29.6796 37.2925 29.6796 39.4183C29.6796 42.4637 29.6532 44.9136 29.6532 45.6636C29.6532 46.2704 30.0647 46.979 31.22 46.7566C36.3547 45.0449 40.712 41.5655 43.5125 36.9406C46.313 32.3158 47.3741 26.8473 46.506 21.513C45.6379 16.1788 42.8973 11.3268 38.7742 7.82491C34.6511 4.32297 29.4146 2.39947 24.0012 2.39844H23.9936Z" fill="white"/>
</svg>
