<svg width="24" height="24" viewBox="0 0 24 24" fill="dark:none #000000" xmlns="http://www.w3.org/2000/svg">
<path fill-rule="evenodd" clip-rule="evenodd" d="M0 12C0 5.37321 5.37321 0 12 0C18.6268 0 24 5.37321 24 12C24 18.6268 18.6268 24 12 24C5.37321 24 0 18.6268 0 12ZM3.33517 14.3985C7.12295 18.1869 12.0763 18.2302 12.285 18.2302C12.4944 18.2302 17.4471 18.1869 21.2362 14.3985C21.3158 14.3182 21.3945 14.2373 21.4712 14.1564C22.2634 13.3188 22.6403 12.3236 22.5608 11.2779C22.4906 10.3551 22.0661 9.46143 21.3647 8.76009C20.6641 8.05876 19.7697 7.63427 18.8476 7.56399C17.8815 7.49017 16.958 7.80676 16.1622 8.48112C16.0756 7.4419 15.6469 6.56523 14.9115 5.93417C14.2101 5.3315 13.2767 5 12.2857 5C11.2948 5 10.362 5.3315 9.65996 5.93417C8.92527 6.56523 8.4958 7.4419 8.40991 8.48112C7.61417 7.80676 6.69065 7.49017 5.72454 7.56399C4.80173 7.63427 3.90802 8.05876 3.20669 8.76009C2.50535 9.46143 2.08086 10.3558 2.01059 11.2779C1.93037 12.3236 2.3073 13.3188 3.10021 14.1564C3.17687 14.238 3.25496 14.3182 3.33517 14.3985Z" fill="white"/>
<path d="M12.2758 16.182C11.6064 16.182 10.986 15.8377 10.6964 15.3061L11.1954 15.0342C11.3877 15.3863 11.8115 15.6141 12.2765 15.6141C12.7414 15.6141 13.1652 15.3863 13.3576 15.0342L13.8559 15.3061C13.5656 15.8377 12.9452 16.182 12.2758 16.182Z" fill="white"/>
<path d="M11.7774 14.0941H11.2095C11.2095 13.2486 10.3868 12.5601 9.37529 12.5601C8.36375 12.5601 7.54103 13.2479 7.54103 14.0941H6.97314C6.97314 12.9356 8.0507 11.9922 9.37529 11.9922C10.6999 11.9922 11.7774 12.9349 11.7774 14.0941Z" fill="white"/>
<path d="M10.0283 14.1077C10.4795 14.1077 10.8453 13.7419 10.8453 13.2907C10.8453 12.8394 10.4795 12.4736 10.0283 12.4736C9.57705 12.4736 9.21124 12.8394 9.21124 13.2907C9.21124 13.7419 9.57705 14.1077 10.0283 14.1077Z" fill="white"/>
<path d="M17.6026 14.0941H17.0347C17.0347 13.2486 16.212 12.5601 15.2004 12.5601C14.1889 12.5601 13.3662 13.2479 13.3662 14.0941H12.7983C12.7983 12.9356 13.8758 11.9922 15.2004 11.9922C16.525 11.9922 17.6026 12.9349 17.6026 14.0941Z" fill="white"/>
<path d="M15.8542 14.1077C16.3055 14.1077 16.6713 13.7419 16.6713 13.2907C16.6713 12.8394 16.3055 12.4736 15.8542 12.4736C15.403 12.4736 15.0372 12.8394 15.0372 13.2907C15.0372 13.7419 15.403 14.1077 15.8542 14.1077Z" fill="white"/>
</svg>
