<svg width="48" height="48" viewBox="0 0 48 48" fill="none" xmlns="http://www.w3.org/2000/svg">
<path fill-rule="evenodd" clip-rule="evenodd" d="M0 24C0 10.7464 10.7464 0 24 0C37.2536 0 48 10.7464 48 24C48 37.2536 37.2536 48 24 48C10.7464 48 0 37.2536 0 24ZM6.67034 28.7969C14.2459 36.3739 24.1526 36.4605 24.57 36.4605C24.9888 36.4605 34.8941 36.3739 42.4725 28.7969C42.6315 28.6365 42.7891 28.4746 42.9424 28.3128C44.5268 26.6375 45.2807 24.6471 45.1217 22.5559C44.9811 20.7103 44.1321 18.9229 42.7295 17.5202C41.3282 16.1175 39.5394 15.2685 37.6952 15.128C35.763 14.9803 33.9159 15.6135 32.3244 16.9622C32.1512 14.8838 31.2937 13.1305 29.8229 11.8683C28.4202 10.663 26.5533 10 24.5714 10C22.5895 10 20.724 10.663 19.3199 11.8683C17.8505 13.1305 16.9916 14.8838 16.8198 16.9622C15.2283 15.6135 13.3813 14.9803 11.4491 15.128C9.60345 15.2685 7.81604 16.1175 6.41337 17.5202C5.0107 18.9229 4.16172 20.7117 4.02117 22.5559C3.86074 24.6471 4.61461 26.6375 6.20042 28.3128C6.35375 28.4761 6.50991 28.6365 6.67034 28.7969Z" fill="white"/>
<path d="M24.5514 32.364C23.2126 32.364 21.9718 31.6755 21.3926 30.6121L22.3906 30.0684C22.7754 30.7725 23.6229 31.2283 24.5528 31.2283C25.4828 31.2283 26.3303 30.7725 26.7151 30.0684L27.7117 30.6121C27.131 31.6755 25.8902 32.364 24.5514 32.364Z" fill="white"/>
<path d="M23.5549 28.1881H22.4191C22.4191 26.4973 20.7737 25.1201 18.7506 25.1201C16.7275 25.1201 15.0821 26.4958 15.0821 28.1881H13.9463C13.9463 25.8712 16.1014 23.9844 18.7506 23.9844C21.3997 23.9844 23.5549 25.8697 23.5549 28.1881Z" fill="white"/>
<path d="M20.0564 28.2154C20.9589 28.2154 21.6905 27.4838 21.6905 26.5813C21.6905 25.6789 20.9589 24.9473 20.0564 24.9473C19.154 24.9473 18.4224 25.6789 18.4224 26.5813C18.4224 27.4838 19.154 28.2154 20.0564 28.2154Z" fill="white"/>
<path d="M35.2053 28.1881H34.0695C34.0695 26.4973 32.424 25.1201 30.401 25.1201C28.3779 25.1201 26.7324 26.4958 26.7324 28.1881H25.5967C25.5967 25.8712 27.7518 23.9844 30.401 23.9844C33.0501 23.9844 35.2053 25.8697 35.2053 28.1881Z" fill="white"/>
<path d="M31.7083 28.2154C32.6108 28.2154 33.3424 27.4838 33.3424 26.5813C33.3424 25.6789 32.6108 24.9473 31.7083 24.9473C30.8058 24.9473 30.0742 25.6789 30.0742 26.5813C30.0742 27.4838 30.8058 28.2154 31.7083 28.2154Z" fill="white"/>
</svg>
