<svg width="48" height="48" viewBox="0 0 48 48" fill="none" xmlns="http://www.w3.org/2000/svg">
<g clip-path="url(#clip0_76_10)">
<path fill-rule="evenodd" clip-rule="evenodd" d="M24 48C37.2548 48 48 37.2548 48 24C48 10.7452 37.2548 0 24 0C10.7452 0 0 10.7452 0 24C0 37.2548 10.7452 48 24 48ZM10 15.8333C10 12.6122 12.6122 10 15.8333 10H32.1667C35.389 10 38 12.6122 38 15.8333V32.1667C38 35.3878 35.389 38 32.1667 38H15.8333C12.6122 38 10 35.3878 10 32.1667V15.8333ZM15.8333 32.1667H19.3333V19.3333H15.8333V32.1667ZM15.5417 15.796C15.5417 16.9323 16.4563 17.854 17.5833 17.854C18.7115 17.854 19.625 16.9323 19.625 15.796C19.625 14.6597 18.7103 13.738 17.5833 13.738C16.4563 13.738 15.5417 14.6597 15.5417 15.796ZM29.8333 32.1667H33.3333V24.2812C33.3333 18.1527 26.7953 18.3755 25.1667 21.3925V19.3333H21.6667V32.1667H25.1667V25.6287C25.1667 21.9968 29.8333 21.6993 29.8333 25.6287V32.1667Z" fill="white"/>
</g>
<defs>
<clipPath id="clip0_76_10">
<rect width="48" height="48" rx="24" fill="white"/>
</clipPath>
</defs>
</svg>
