<svg width="143" height="33" viewBox="0 0 143 33" fill="none" xmlns="http://www.w3.org/2000/svg">
<path d="M19.015 10.2865H22.5602V20.9096C22.5602 22.8682 21.8702 24.5375 20.4901 25.9175C19.1018 27.3058 17.4325 28 15.4822 28H1.30151V10.2865H4.84669V24.4548H15.4822C21.6453 24.4548 19.015 13.7775 19.015 10.2865Z" fill="white"/>
<path d="M40.0506 10.2865H46.2484L36.5426 17.0298L46.2236 28H41.5009L33.6172 19.0751L28.7209 22.4715V28H25.1757V10.2865H28.7209V18.1578L40.0506 10.2865Z" fill="white"/>
<path d="M66.565 10.2865H70.1102V28H66.565V20.9096H52.3967V28H48.8515V10.2865H52.3967V17.3645H66.565V10.2865Z" fill="white"/>
<path d="M72.7257 10.2865H93.9844V13.8193H76.2709V17.3645H93.9844V20.9096H76.2709V24.4548H93.9844V28H72.7257V10.2865Z" fill="white"/>
<path d="M96.5999 10.2865H116.978V14.2159L102.252 24.4548H116.978V28H96.5999V24.0706L111.326 13.8193H96.5999V10.2865Z" fill="white"/>
<path d="M137.295 20.9096V13.8193H126.672C125.697 13.8193 124.862 14.1664 124.168 14.8605C123.474 15.5547 123.127 16.3893 123.127 17.3645V24.4548H133.762C134.737 24.4548 135.572 24.1077 136.266 23.4136C136.952 22.7194 137.295 21.8848 137.295 20.9096ZM119.582 28V17.3645C119.582 15.4142 120.276 13.7449 121.664 12.3566C123.044 10.9765 124.713 10.2865 126.672 10.2865H140.84V20.9096C140.84 22.8682 140.15 24.5375 138.77 25.9175C137.382 27.3058 135.713 28 133.762 28H119.582Z" fill="white"/>
</svg>
