<svg width="48" height="48" viewBox="0 0 48 48" fill="none" xmlns="http://www.w3.org/2000/svg">
<g clip-path="url(#clip0_3_10)">
<path fill-rule="evenodd" clip-rule="evenodd" d="M24 48C37.2548 48 48 37.2548 48 24C48 10.7452 37.2548 0 24 0C10.7452 0 0 10.7452 0 24C0 37.2548 10.7452 48 24 48ZM9.7749 13.992C9.34622 14.9523 9.11697 15.9664 9 16.9858H9.00058C8.99181 17.3992 9.21697 17.632 9.58249 17.6121C9.89713 17.5952 10.0696 17.3887 10.1071 16.9542C10.1831 16.0711 10.4182 15.2272 10.7761 14.4231C11.8288 12.0609 13.5541 10.3889 15.9653 9.43506C16.3257 9.29224 16.6993 9.19351 17.0728 9.0948L17.2233 9.05492C17.5706 8.96252 17.7473 8.70578 17.6829 8.41746C17.6145 8.11159 17.3408 7.95018 16.9811 8.01334C16.818 8.042 16.656 8.07943 16.4975 8.12563C13.3529 9.04498 11.1112 11.0012 9.7749 13.992ZM24.2669 34.44H13.509L13.4867 34.44H13.4867C13.3187 34.4401 13.1519 34.4402 12.9855 34.4038C12.4446 34.2839 12.1106 33.8441 12.1527 33.2985C12.1908 32.799 12.5931 32.4183 13.1247 32.3838C14.0879 32.3218 14.788 31.889 15.1476 30.9662C15.2488 30.7059 15.2593 30.4351 15.2593 30.1609C15.2592 29.5023 15.2586 28.8438 15.258 28.1853V28.1848C15.2563 26.3293 15.2547 24.4738 15.2629 22.6183C15.2693 21.1855 15.5664 19.8135 16.2214 18.5304C17.394 16.2326 19.2321 14.7197 21.6784 13.936C21.8884 13.8687 21.9942 13.774 22.0515 13.5529C22.4679 11.947 24.4306 11.3499 25.6921 12.4242C26.057 12.7348 26.2974 13.1067 26.4173 13.5605C26.4705 13.7629 26.5834 13.8641 26.7822 13.9272C29.914 14.9179 31.955 16.9929 32.917 20.1305C33.1884 21.0147 33.2562 21.9294 33.2615 22.8453L33.2629 23.0955V23.0957V23.0958V23.096V23.0961V23.0963C33.2766 25.4584 33.2902 27.821 33.2574 30.1825C33.2416 31.3065 34.0867 32.3159 35.3347 32.3809C35.9704 32.4142 36.3699 32.8037 36.3769 33.3768C36.3839 33.9546 35.9693 34.3816 35.347 34.4336C35.2509 34.4417 35.1538 34.4408 35.0569 34.44H35.0569H35.0568H35.0568H35.0567H35.0567H35.0566H35.0565H35.0564H35.0564C35.042 34.4398 35.0276 34.4397 35.0133 34.4396C34.998 34.4395 34.9827 34.4395 34.9674 34.4395H24.268L24.2669 34.44ZM24.2676 36.7653C24.654 36.7653 25.0403 36.7651 25.4266 36.7649H25.4323H25.4324H25.4325H25.4325H25.4326C26.2032 36.7645 26.9736 36.7641 27.7444 36.7653C28.4 36.7665 28.6725 37.1916 28.3573 37.7718C27.4894 39.369 26.17 40.2789 24.3185 40.2988C22.4289 40.3193 21.0885 39.4093 20.1732 37.7952C19.8843 37.2864 20.1124 36.7314 20.8212 36.7542C21.6233 36.7799 22.4263 36.7746 23.2294 36.7692C23.5757 36.7669 23.9219 36.7645 24.2682 36.7647L24.2676 36.7653ZM39.5268 16.9432C39.525 17.3391 39.3332 17.5765 39.0595 17.6075C38.7483 17.6432 38.5279 17.5081 38.4659 17.1783C38.4352 17.0144 38.41 16.8495 38.3848 16.6845C38.338 16.3785 38.2912 16.0724 38.2091 15.7729C37.419 12.8903 35.6587 10.8346 32.9451 9.58896C32.4468 9.36029 31.9217 9.21525 31.3947 9.07665C30.9737 8.96612 30.7748 8.73453 30.8444 8.42223C30.9216 8.07835 31.2152 7.93799 31.6573 8.03858C33.2738 8.40819 34.7125 9.13572 35.9692 10.2136C37.6951 11.6926 38.8092 13.5494 39.3238 15.7612C39.3907 16.0496 39.4349 16.3436 39.4748 16.6092L39.4748 16.6093L39.4748 16.6096L39.4749 16.6099C39.4925 16.7271 39.5092 16.8388 39.5268 16.942V16.9432ZM18.2461 11.7277C18.2104 11.492 17.9771 11.2937 17.6724 11.2896V11.2902C17.6327 11.2998 17.5878 11.3098 17.5393 11.3205L17.539 11.3205L17.539 11.3205L17.539 11.3205L17.539 11.3205C17.4251 11.3456 17.2917 11.375 17.1618 11.4148C15.0184 12.0716 13.5037 13.4313 12.6276 15.494C12.3668 16.108 12.2194 16.7549 12.1598 17.4186C12.13 17.7491 12.3305 17.9859 12.6259 18.0175C12.9277 18.0497 13.1493 17.8877 13.2166 17.5789C13.2321 17.5075 13.2426 17.4349 13.2531 17.3623L13.2531 17.3623L13.2531 17.3623C13.2607 17.3094 13.2684 17.2565 13.278 17.204C13.6657 15.0647 14.8646 13.5646 16.8407 12.6733C17.0652 12.5721 17.2998 12.5046 17.5346 12.437L17.5346 12.437C17.6552 12.4023 17.7759 12.3676 17.8952 12.3283C18.1607 12.2406 18.2882 12.0025 18.2461 11.7277ZM36.3712 17.4274C36.3729 17.7514 36.1752 17.9888 35.8974 18.0175C35.5846 18.0497 35.3524 17.8847 35.3079 17.5479C35.1904 16.6478 34.9348 15.7975 34.4424 15.029C33.6289 13.76 32.5218 12.8745 31.0603 12.4564C31.0234 12.4458 30.9863 12.4355 30.9493 12.4252L30.9492 12.4252C30.8455 12.3965 30.7418 12.3678 30.641 12.3312C30.3527 12.226 30.2118 11.9634 30.2849 11.6844C30.355 11.4142 30.617 11.2469 30.9194 11.3084C31.8879 11.5054 32.7745 11.9014 33.5611 12.4956C35.1524 13.698 36.0887 15.2928 36.3565 17.2742C36.3613 17.3106 36.3645 17.3472 36.3672 17.3785C36.3688 17.397 36.3702 17.4137 36.3717 17.4274H36.3712Z" fill="white"/>
</g>
<defs>
<clipPath id="clip0_3_10">
<rect width="48" height="48" rx="24" fill="white"/>
</clipPath>
</defs>
</svg>
