<svg width="24" height="24" viewBox="0 0 24 24" fill="none" xmlns="http://www.w3.org/2000/svg">
<g clip-path="url(#clip0_134_7419)">
<path fill-rule="evenodd" clip-rule="evenodd" d="M24 12C24 18.6274 18.6274 24 12 24C5.37258 24 0 18.6274 0 12C0 5.37258 5.37258 0 12 0C18.6274 0 24 5.37258 24 12ZM12.43 8.85954C11.2628 9.34501 8.93014 10.3498 5.43189 11.8739C4.86383 12.0998 4.56626 12.3208 4.53917 12.5369C4.49339 12.9021 4.95071 13.0459 5.57348 13.2417C5.65819 13.2684 5.74596 13.296 5.83594 13.3252C6.44864 13.5244 7.27283 13.7574 7.70129 13.7667C8.08994 13.775 8.52373 13.6148 9.00264 13.286C12.2712 11.0796 13.9584 9.96442 14.0643 9.94038C14.139 9.92342 14.2426 9.90209 14.3128 9.96446C14.3829 10.0268 14.376 10.1449 14.3686 10.1766C14.3233 10.3698 12.5281 12.0387 11.5991 12.9024C11.3095 13.1716 11.1041 13.3626 11.0621 13.4063C10.968 13.504 10.8721 13.5964 10.78 13.6852C10.2108 14.2339 9.78391 14.6454 10.8036 15.3174C11.2936 15.6403 11.6858 15.9074 12.0769 16.1738C12.5042 16.4647 12.9303 16.7549 13.4816 17.1163C13.6221 17.2084 13.7562 17.304 13.8869 17.3971C14.3841 17.7516 14.8307 18.07 15.3826 18.0193C15.7032 17.9897 16.0345 17.6882 16.2027 16.789C16.6002 14.6638 17.3816 10.0591 17.5622 8.16159C17.578 7.99534 17.5581 7.78258 17.5422 7.68919C17.5262 7.59579 17.4928 7.46272 17.3714 7.36421C17.2276 7.24755 17.0056 7.22295 16.9064 7.22469C16.455 7.23265 15.7626 7.47343 12.43 8.85954Z" fill="white"/>
</g>
<defs>
<clipPath id="clip0_134_7419">
<rect width="24" height="24" fill="white"/>
</clipPath>
</defs>
</svg>
