<svg width="48" height="48" viewBox="0 0 48 48" fill="none" xmlns="http://www.w3.org/2000/svg">
<g clip-path="url(#clip0_1_74)">
<path fill-rule="evenodd" clip-rule="evenodd" d="M24 48C37.2548 48 48 37.2548 48 24C48 10.7452 37.2548 0 24 0C10.7452 0 0 10.7452 0 24C0 37.2548 10.7452 48 24 48ZM16.5635 19.6904C16.5635 23.6437 19.7372 26.8174 23.6904 26.8174C27.6437 26.8174 30.8174 23.6437 30.8174 19.6904C30.8174 15.7372 27.6437 12.5635 23.6904 12.5635C19.7372 12.5635 16.5635 15.7372 16.5635 19.6904ZM34.3808 19.6904C34.3808 13.7884 29.5924 9 23.6904 9C17.7884 9 13 13.7884 13 19.6904C13 25.5924 17.7884 30.3808 23.6904 30.3808C29.5924 30.3808 34.3808 25.5924 34.3808 19.6904ZM33.8797 33.4432C34.6036 32.7751 34.6036 31.6615 33.8797 30.9376C33.2116 30.2138 32.0423 30.2138 31.3742 30.9376L24.2472 38.0646C23.5234 38.7327 23.5234 39.8463 24.2472 40.5702C24.9154 41.294 26.029 41.294 26.7528 40.5702L33.8797 33.4432ZM36.2183 12.5635C37.2205 12.5635 38 11.784 38 10.7817C38 9.77951 37.1648 9 36.2183 9C35.216 9 34.4365 9.77951 34.4365 10.7817C34.4365 11.784 35.216 12.5635 36.2183 12.5635Z" fill="white"/>
</g>
<defs>
<clipPath id="clip0_1_74">
<rect width="48" height="48" rx="24" fill="white"/>
</clipPath>
</defs>
</svg>
