<svg width="48" height="48" viewBox="0 0 48 48" fill="none" xmlns="http://www.w3.org/2000/svg">
<g clip-path="url(#clip0_1_11)">
<path fill-rule="evenodd" clip-rule="evenodd" d="M24 48C37.2548 48 48 37.2548 48 24C48 10.7452 37.2548 0 24 0C10.7452 0 0 10.7452 0 24C0 37.2548 10.7452 48 24 48ZM37.0919 10L26.6665 21.8575L38 38H29.6616L22.0269 27.1273L12.4696 38H10L20.9321 25.5672L10 10H18.3384L25.5661 20.2936L34.6223 10H37.0919ZM17.1549 11.8222H13.3609L30.8255 36.2673H34.6204L17.1549 11.8222Z" fill="white"/>
</g>
<defs>
<clipPath id="clip0_1_11">
<rect width="48" height="48" rx="24" fill="white"/>
</clipPath>
</defs>
</svg>
