<svg width="24" height="24" viewBox="0 0 24 24" fill="none" xmlns="http://www.w3.org/2000/svg" >
<g clip-path="url(#clip0_134_7402)">
<path fill-rule="evenodd" clip-rule="evenodd" d="M12 24C18.6274 24 24 18.6274 24 12C24 5.37258 18.6274 0 12 0C5.37258 0 0 5.37258 0 12C0 18.6274 5.37258 24 12 24ZM18.0358 10.0971C18.0358 13.9191 15.1258 18.3291 9.80384 18.3291C8.17184 18.3291 6.64784 17.8491 5.38184 17.0211C5.60984 17.0511 5.83784 17.0631 6.07184 17.0631C7.42784 17.0631 8.67584 16.6011 9.66584 15.8271C8.39984 15.8031 7.33184 14.9691 6.96584 13.8171C7.14584 13.8531 7.32584 13.8711 7.51184 13.8711C7.77584 13.8711 8.03384 13.8351 8.27384 13.7691C6.94784 13.4991 5.95184 12.3351 5.95184 10.9311V10.8951C6.34184 11.1111 6.78584 11.2431 7.25984 11.2551C6.47984 10.7391 5.96984 9.85114 5.96984 8.84914C5.96984 8.32114 6.11384 7.82314 6.35984 7.39714C7.78784 9.14914 9.91784 10.3011 12.3238 10.4211C12.2698 10.2111 12.2458 9.98914 12.2458 9.76114C12.2458 8.16514 13.5418 6.86914 15.1378 6.86914C15.9718 6.86914 16.7218 7.21714 17.2498 7.78114C17.9098 7.64914 18.5278 7.40914 19.0858 7.07914C18.8698 7.75714 18.4138 8.32114 17.8138 8.68114C18.4018 8.60914 18.9598 8.45314 19.4758 8.22514C19.0858 8.80714 18.5938 9.31714 18.0298 9.72514C18.0358 9.84514 18.0358 9.97114 18.0358 10.0971Z" fill="white"/>
</g>
<defs>
<clipPath id="clip0_134_7402">
<rect width="24" height="24" rx="12" fill="white" />
</clipPath>
</defs>
</svg>
