<svg width="48" height="48" viewBox="0 0 48 48" fill="none" xmlns="http://www.w3.org/2000/svg">
<g clip-path="url(#clip0_1_40)">
<path fill-rule="evenodd" clip-rule="evenodd" d="M24 48C37.2548 48 48 37.2548 48 24C48 10.7452 37.2548 0 24 0C10.7452 0 0 10.7452 0 24C0 37.2548 10.7452 48 24 48ZM20.4793 19.8596C20.1585 19.4386 13.7592 11.7193 9.6059 6.75439C9.4741 6.59053 9.35041 6.43997 9.24951 6.31716L9.24948 6.31711C9.09112 6.12436 8.98895 6 8.99984 6C9.05332 6 20.6576 18.5614 21.4954 19.5088L21.7271 19.7544L21.7093 20.1579C21.6915 20.7018 21.5132 21.0702 21.1032 21.4386C20.6398 21.8772 20.0515 22.1053 19.1424 22.2281C18.5899 22.2982 18.3938 22.386 18.1621 22.6316C17.9481 22.8596 17.859 23.1579 17.8055 23.8947C17.7164 25.0526 17.5738 25.5263 17.0212 26.6667C16.4865 27.7719 16.3795 28.1754 16.4686 28.7719C16.5756 29.4737 16.9856 30 17.9481 30.6491C18.679 31.1403 19.0177 31.4561 19.1959 31.8421C19.3029 32.0877 19.3207 32.1754 19.3207 32.5789C19.3207 33.2105 19.2137 33.4561 18.7859 33.9123C18.0907 34.6491 16.8252 35.2456 15.2922 35.5965C14.6505 35.7368 14.6148 35.7368 14.6148 35.5965C14.6148 35.4211 14.3653 34.9474 13.9553 34.3158C13.474 33.5965 13.2779 33.2281 13.0997 32.6667C12.9036 32.0351 12.8323 31.614 12.8679 30.9474C12.9036 30.3158 12.9749 30.0351 13.2244 29.5439C13.4205 29.1403 13.5453 28.9649 14.3474 27.9825C15.72 26.3158 16.2013 25.3333 16.3795 23.9474C16.5399 22.7018 16.7539 22.1053 17.2351 21.5789C17.5203 21.2632 17.5916 21.1404 17.5916 20.9123C17.5916 20.807 17.146 19.9474 15.7735 17.5439C13.5988 13.7193 13.5988 13.7193 13.6701 13.7544C13.6879 13.7719 14.7039 15.2982 15.8982 17.1404C17.4669 19.5439 18.1621 20.5439 18.3225 20.7018C18.5542 20.9298 18.8929 21.0702 19.1781 21.0702C19.4276 21.0702 19.9446 20.9298 20.1941 20.7895C20.6398 20.5439 20.7467 20.2105 20.4793 19.8596ZM14.8465 30.7368C15.1674 30.9474 15.2744 31.3684 15.0783 31.7018C14.9 32.0175 14.5613 32.1228 14.3118 31.9298C14.1514 31.807 14.1514 31.6316 14.2761 31.4386C14.4009 31.2456 14.3831 31.1579 14.2227 31.0702C14.1157 31.0351 14.0801 30.9649 14.0801 30.8947C14.0801 30.6316 14.5435 30.5439 14.8465 30.7368ZM20.5508 13.6491C20.3725 13.6667 20.3904 13.6842 20.7647 13.7368C22.1373 13.9474 23.1889 14.4737 24.2406 15.4737C24.7219 15.9298 25.2032 16.4737 25.9697 17.4737C27.6988 19.7368 28.4474 20.3509 29.9091 20.8246C30.7647 21.1053 31.6381 21.2281 33.1711 21.3158C34.8645 21.4035 35.5062 21.5263 36.1123 21.9298C36.451 22.1579 36.7005 22.4211 36.9679 22.8246L37.1283 23.0526L37.0927 22.7895C36.9857 21.807 36.2727 20.4211 35.3636 19.4211L35.2032 19.2456L35.1141 19.614C34.9002 20.5439 34.4545 21.2105 34.0267 21.2105C33.8307 21.2105 33.6168 21.0877 33.5455 20.9123C33.4563 20.6842 33.4563 20.614 33.5989 20.3509C33.8663 19.8772 33.9198 19.2632 33.795 18.4386C33.7594 18.2105 33.7059 17.9825 33.6702 17.9474C33.5811 17.8421 32.8503 17.4211 32.3868 17.2105C30.6934 16.4386 28.6613 16.193 26.6827 16.5088L26.2192 16.5789L25.8984 16.2105C24.6684 14.8596 23.5098 14.0877 22.2264 13.7895C21.6738 13.6667 20.8895 13.5965 20.5508 13.6491ZM34.3654 14.4561C34.1693 14.8596 34.0802 15.2982 34.0446 15.9649C34.0267 16.4035 33.9911 16.5439 33.9376 16.5965C33.8663 16.614 33.7594 16.5965 33.1355 16.3509C32.7255 16.1754 31.6738 15.8772 31.6381 15.9123C31.6203 15.9123 31.8342 16.0175 32.1194 16.1404C32.3868 16.2632 32.8503 16.4912 33.1176 16.6491C34.205 17.2632 34.3832 17.6316 34.3832 19.1579C34.3832 19.9123 34.3654 20.0175 34.2763 20.2456C34.1515 20.5439 34.1693 20.5965 34.3119 20.3333C34.5793 19.8246 34.6863 19.3333 34.7041 18.5439C34.7041 18.0351 34.7219 17.9298 34.7932 17.8596C34.8824 17.7719 34.9002 17.7719 35.025 17.8421C35.221 17.9298 36.0766 18.5965 36.451 18.9474L36.754 19.2281L36.451 18.8421C36.2727 18.6316 35.8093 18.1228 35.4171 17.7193C34.5615 16.8596 34.508 16.7544 34.3832 15.9649C34.2941 15.3509 34.3119 14.807 34.4545 14.4211C34.508 14.2807 34.5437 14.1579 34.5258 14.1579C34.508 14.1579 34.4367 14.2982 34.3654 14.4561ZM21.4955 18.5789C20.7469 17.5614 20.2656 15.9825 20.3725 14.807L20.4082 14.4386L20.5865 14.4737C20.9073 14.5263 21.4599 14.7368 21.7273 14.8947C22.4403 15.3158 22.7611 15.8947 23.0642 17.3333C23.1533 17.7544 23.2781 18.2456 23.3316 18.4035C23.4207 18.6667 23.7594 19.2807 24.0446 19.6667C24.2406 19.9474 24.1159 20.0877 23.6702 20.0526C22.9929 19.9825 22.0838 19.3684 21.4955 18.5789ZM28.3583 21.5439C28.3583 23.5965 29.6061 24.807 33.1355 26.2105C35.4884 27.1404 36.451 27.614 37.1996 28.2456C37.8235 28.7895 38.1979 29.4912 38.2335 30.2281C38.2335 30.3684 38.2692 30.4561 38.287 30.4561C38.3761 30.4386 38.7326 29.6316 38.8574 29.193C39 28.6316 39.0535 27.5614 38.9643 27C38.6435 25.0526 37.3066 23.614 35.1497 22.9123C34.4724 22.6842 33.7237 22.5439 32.4225 22.3509C30.1943 22.0351 29.3922 21.7895 28.6791 21.2281C28.6257 21.1871 28.5762 21.1482 28.5333 21.1144L28.5332 21.1144C28.4474 21.0468 28.388 21 28.3761 21C28.3761 21 28.3583 21.2456 28.3583 21.5439ZM30.6399 26.7895C30.6043 26.5263 30.5152 26.193 30.4617 26.0526L30.3725 25.7895L30.533 25.9825C30.7647 26.2456 30.943 26.5614 31.1034 27C31.2282 27.3333 31.2282 27.4386 31.2282 27.9824V27.9825C31.2282 28.5088 31.2103 28.6316 31.1034 28.9298C30.9251 29.4035 30.7112 29.7368 30.3547 30.1053C29.713 30.7544 28.8752 31.1053 27.6809 31.2632L27.5472 31.2743L27.547 31.2743C27.2713 31.2974 26.7738 31.3391 26.3262 31.3684C24.9893 31.4386 24.098 31.5789 23.2959 31.8596L23.2959 31.8597C23.1889 31.8947 23.082 31.9298 23.0642 31.9123C23.0285 31.8772 23.5811 31.5614 24.0267 31.3509C24.6506 31.0526 25.2923 30.8947 26.7005 30.6491C27.3957 30.5439 28.1087 30.4035 28.287 30.3333C30.0517 29.7895 30.9251 28.4386 30.6399 26.7895ZM31.9412 26.7719C31.6916 27.6667 31.7986 28.614 32.262 29.614C32.5116 30.1228 32.7433 30.4912 33.7237 31.8947C34.5437 33.1053 34.9537 33.8246 35.1497 34.4211C35.4706 35.386 35.4171 36.2456 34.9893 37.1404C34.8824 37.3509 34.8111 37.5263 34.8289 37.5263C34.8467 37.5263 35.0071 37.4561 35.2032 37.3509C36.5045 36.6667 37.3957 35.4737 37.7879 33.9825C37.9127 33.5088 37.9661 32.3684 37.877 31.8947C37.7344 31.0526 37.4314 30.3684 36.9323 29.7719C36.3619 29.0877 35.5419 28.4912 34.098 27.7193C32.9572 27.1053 32.5116 26.8596 32.2977 26.7193C32.1907 26.6491 32.0838 26.5965 32.0481 26.5965C32.0125 26.5965 31.9768 26.6842 31.9412 26.7719ZM18.9822 34.9825C20.3012 33.8947 21.9234 33.1228 23.4207 32.8772C24.0624 32.7719 25.1319 32.807 25.7201 32.9649C26.6649 33.2105 27.5205 33.7368 27.9661 34.386C28.3939 35.0175 28.59 35.5614 28.7861 36.7719C28.8437 37.1548 28.913 37.5491 28.9469 37.7418L28.9469 37.7419L28.9469 37.742L28.9469 37.7421L28.9643 37.8421C29.107 38.4737 29.3922 38.9649 29.7487 39.2281C30.3012 39.6316 31.2638 39.6491 32.2086 39.2982C32.2426 39.2871 32.2758 39.2759 32.307 39.2654L32.3071 39.2654C32.4231 39.2264 32.5116 39.1967 32.5116 39.2105C32.5472 39.2456 32.066 39.5614 31.7451 39.7193C31.2995 39.9474 30.943 40.0175 30.4617 40.0175C29.6061 40.0175 28.8752 39.5789 28.287 38.7018C28.1622 38.5263 27.9127 38.0175 27.6988 37.5439C27.0749 36.1228 26.754 35.7018 26.0232 35.2281C25.3815 34.8246 24.5615 34.7368 23.9376 35.0351C23.1176 35.4211 22.9037 36.4561 23.4742 37.0877C23.7059 37.3509 24.1337 37.5614 24.4902 37.614C25.1497 37.7018 25.7201 37.193 25.7201 36.5439C25.7201 36.1228 25.5597 35.8772 25.1319 35.6842C24.5615 35.4386 23.9376 35.7193 23.9554 36.2632C23.9554 36.4912 24.0624 36.6316 24.2941 36.7368L24.2941 36.7369L24.2945 36.737C24.3724 36.7754 24.4076 36.7927 24.4059 36.7977C24.4046 36.8017 24.3781 36.7974 24.3298 36.7895C23.8128 36.6842 23.6881 36.0526 24.098 35.6491C24.5971 35.1579 25.6488 35.3684 26.0053 36.0526C26.1479 36.3333 26.1658 36.8947 26.041 37.2456C25.738 38.0175 24.8824 38.4211 24.0089 38.193C23.4207 38.0351 23.1711 37.8772 22.4581 37.1579C21.2103 35.8947 20.7291 35.6491 18.9465 35.386L18.6078 35.3333L18.9822 34.9825ZM22.2977 22.4737C21.8699 22.5965 21.4599 23.0526 21.3351 23.5088C21.2638 23.7895 21.2995 24.2982 21.4242 24.4561C21.6203 24.7018 21.7986 24.7719 22.2977 24.7719C23.2781 24.7719 24.1159 24.3509 24.205 23.8421C24.2941 23.4211 23.9198 22.8421 23.4029 22.5789C23.1355 22.4386 22.5829 22.386 22.2977 22.4737ZM23.4385 23.3509C23.5811 23.1404 23.5276 22.9123 23.2603 22.7544C22.779 22.4561 22.0481 22.7018 22.0481 23.1579C22.0481 23.386 22.4225 23.6316 22.779 23.6316C23.0107 23.6316 23.3316 23.4912 23.4385 23.3509Z" fill="white"/>
</g>
<defs>
<clipPath id="clip0_1_40">
<rect width="48" height="48" rx="24" fill="white"/>
</clipPath>
</defs>
</svg>
