<svg width="48" height="48" viewBox="0 0 48 48" fill="none" xmlns="http://www.w3.org/2000/svg">
<g clip-path="url(#clip0_3_32)">
<path fill-rule="evenodd" clip-rule="evenodd" d="M24 48C37.2548 48 48 37.2548 48 24C48 10.7452 37.2548 0 24 0C10.7452 0 0 10.7452 0 24C0 37.2548 10.7452 48 24 48ZM24 7C33.3888 7 41 14.6112 41 24C41 33.3888 33.3888 41 24 41C14.6112 41 7 33.3888 7 24C7 14.6112 14.6112 7 24 7ZM14.4416 22.4066H10.2777C11.0677 15.5283 16.9101 10.1868 24 10.1868C27.9225 10.1868 31.4632 11.8217 33.9776 14.4474L23.8457 14.4634H23.8445C19.1211 14.464 15.1999 17.8987 14.4416 22.4066ZM10.2777 25.5934H14.4416C15.2 30.1017 19.1218 33.5366 23.8457 33.5366H33.993C31.4776 36.1716 27.9305 37.8132 24 37.8132C16.9101 37.8132 11.0677 32.4717 10.2777 25.5934ZM37.7223 25.5934H17.6975C18.4045 28.329 20.8892 30.3498 23.8457 30.3498H36.2705C37.0242 28.8962 37.5273 27.2916 37.7223 25.5934ZM17.6975 22.4066H37.7223C37.5264 20.7007 37.0197 19.0893 36.2603 17.6305L23.847 17.6502H23.8457C20.8892 17.6502 18.4045 19.671 17.6975 22.4066Z" fill="white"/>
</g>
<defs>
<clipPath id="clip0_3_32">
<rect width="48" height="48" rx="24" fill="white"/>
</clipPath>
</defs>
</svg>
