<svg width="48" height="48" viewBox="0 0 48 48" fill="none" xmlns="http://www.w3.org/2000/svg">
<g clip-path="url(#clip0_3_37)">
<path fill-rule="evenodd" clip-rule="evenodd" d="M24 48C37.2548 48 48 37.2548 48 24C48 10.7452 37.2548 0 24 0C10.7452 0 0 10.7452 0 24C0 37.2548 10.7452 48 24 48ZM24.5804 6C14.3187 6 6 14.2827 6 24.5C6 34.7173 14.3187 43 24.5804 43C26.0104 43 27.2671 42.8845 28.7228 42.5595L27.7576 38.5151C26.7345 38.7435 25.6803 38.8355 24.5804 38.8355C16.6287 38.8355 10.1826 32.4173 10.1826 24.5C10.1826 16.5827 16.6287 10.1645 24.5804 10.1645C32.5387 10.1645 38.845 16.5149 38.8174 24.4199C38.8103 26.4622 38.4143 27.8645 36.6456 29.6256C35.0369 31.2273 32.5435 31.1872 31.1761 29.7056C29.8087 28.224 27.3152 24.4199 27.3152 24.4199L32.5434 16.8117H26.7924L24.5402 20.7359L22.2478 16.8117H16.5369L21.6043 24.4197L16.3761 32.1483H21.9261L24.5 28.224C24.695 28.4923 24.8949 28.7742 25.1005 29.0639C26.357 30.8354 27.8227 32.9018 29.648 33.9502C32.6239 35.592 36.6797 35.2687 39.0587 33.0693C41.8739 30.4665 43 27.7035 43 24.4199C42.7587 14.1288 34.8354 6 24.5804 6Z" fill="white"/>
</g>
<defs>
<clipPath id="clip0_3_37">
<rect width="48" height="48" rx="24" fill="white"/>
</clipPath>
</defs>
</svg>
